<?xml version="1.0" encoding="UTF-8"?>
<svg id="Layer_1" xmlns="http://www.w3.org/2000/svg" version="1.1" viewBox="0 0 279.24 262.31">
  <!-- Generator: Adobe Illustrator 30.5.1, SVG Export Plug-In . SVG Version: 2.1.4 Build 3)  -->
  <path d="M154.31,261.96c-6.62.33-16.4.19-23.4.35-47.16-.43-94.16-27.05-116.39-68.74C-8.08,151.52-3.75,98.35,23.7,59.64,48.67,25.08,89.83,2.04,132.47.4c61.36-4.77,119.12,33.14,139.21,91.24,30,83.67-33.4,160.83-117.23,170.3h-.14ZM46.22,124.37c1.57,1.8.3,4.88,1.86,6.71.92,1.11,2.98.57,5.22.38,3.27-.27,6.08-.78,7.21-3.7.66-1.44,1.21-3.25,2.4-4.33,1.63-1.59,5.02-1.3,5.72,1.01.92,2.55-1.97,7.41,2.13,7.96,2.92.42,6.83,1.75,9.69,1.49,2.78-1.28,2.77-6.01,5.24-7.74,1.16-.92,3.05-.97,4.39-.53,3.58,1.66-1.07,7.48-.58,10.28.17.87,1.02,1.21,1.79,1.54,3.14,1.04,7.79,3.07,11.13,3.82,3.44.31,4.11-4.82,6.84-6.2,1.94-1.29,6.23-.69,6.07,2.1-.14,2.32-2.62,4.63-2.55,7.01.11.59.55,1.02,1.05,1.36,1.58,1,4.42,2.39,6.46,3.41,5.46,3.15,7.63-1.23,12.07-3,1.92-.56,3.9-.12,4.6,1.58,1.12,2.53-2.72,5.88-4.06,8.43-.71,2.12,1.93,3.24,3.32,4.52,2.21,1.53,4.34,3.9,6.82,4.47,4.01.28,8.82-6.73,12.91-2.18,1.98,3.12-4.86,6.28-6.1,8.23-1.58,1.64.63,3.11,1.75,4.46,2.15,1.84,4.02,5.68,7.06,5.51,4.1-1.33,10.68-5.92,13.66-3.6,1.62,1.37.67,3.96-.74,5.19-1.94,1.96-5.76,3.23-6.85,5.11-.4,1.78,1.34,3.06,2.27,4.58,1.12,1.36,1.93,3.13,3.73,3.41,3.29-.1,7.35-3.37,11.1-2.84,2.44.21,5.89,1.67,5.49,4.58-.48,2.66-2.95,2.45-5.71,2.86-2.32.55-5.03.92-5.84,2.62-.04,1.28.68,2.01,1.48,3.74,1.06,2.05,2.42,4.66,3.49,6.71.84,1.42,1.2,2.93,2.81,3.07,3.28-.54,8.92-3.89,11.05.29.87,5.71-10.44,4.32-7.43,11.26,1.11,3.59,3.09,10.32,4.09,13.27.29.74.61,1.31,1.32,1.49.89.24,2.75-.84,3.92-1.42,12.56-6.54,24.2-13.77,34.16-23.41,33.93-30.15,47.38-81.83,30.33-123.83-1.89-3.71-9.75-1.22-13.05-1.26-5.77.35-5.67,1.95-5.93,6.78-.06,4.05-4.24,5.4-6.63,2.13-1.56-1.94-1.16-5.2-2.94-6.82-1.04-.72-2.41-.8-3.67-1-3.15-.18-6.48-1.34-9.05-.67-2.63,2.31-.05,10.03-5.11,9.83-5.52-1.04-3.14-7.08-4.54-10.61-.4-.6-1.07-.92-1.79-1.17-2.36-.76-6.95-2.11-9.87-2.99-4.11-1.61-4.15,2.13-5.44,4.93-.82,1.89-2.9,4.92-4.95,4.47-2.45-.81-2.73-4.7-2.24-7.14.25-1.79,1.07-3.74.6-5.33-.37-.86-1.35-1.21-2.19-1.61-3.34-1.46-9.97-4.42-12.7-5.57-.56-.22-1.14-.4-1.68-.25-2.27,1.23-3.33,5.77-5.47,7.4-2.21,1.96-5.63.07-5.41-2.82.03-1.83.98-4.08,1.65-5.85.94-2.01,1.21-4.16-.95-5.33-1.81-1.26-4.84-3.31-6.61-4.47-.78-.48-1.59-.98-2.49-.77-3.46,1.04-6.89,8.59-10.98,5.88-3.82-3.25.91-7.37,1.8-10.83.47-3.55-6.11-6.58-8.99-5.65-1.93.69-3.06,2.8-5.06,3.51-3.87,1.89-5.27-2.63-3.65-5.4,1.09-2.9,4.4-5.77,2.51-8.27-1.04-1.33-2.95-3.01-4.42-3.25-2.57-.27-4.38,2.62-6.91,2.75-5.4.28-2.83-6.36-.67-8.75,1.93-2.5.17-4.39,2.45-6.26.93-.75,2.08-1.13,3.26-1.32,2.97-.62,12.28-3.15,11.12,2.86-.72,2.14-3.75,3.26-3.56,5.44,2.4,4.06,7.86,1.25,12.29.76,2.42-.52,6.82.29,5.35,3.63-.77,1.71-3.2,3.25-4.69,4.35-.97.71-1.61,1.39-1.4,2.09.54,1.43,2.99,2.9,4.3,4.16,1.66,1.26,3.17,3.22,5.38,2.62,2.43-.83,4.91-3.06,7.7-3.41,2.4-.54,5.75,1.11,4.34,3.95-.87,2.18-4.35,3.32-4.41,5.84.56,2.04,7.36,4.96,9.76,4.88,2.58-.6,4.67-3.39,7.38-4.12,3.07-1.27,6.54,1.19,4.89,4.29-1.15,2.79-7.26,4.57-2.32,6.25,2.43.97,5.18,1.96,7.6,2.93,2.83,1.05,4.73,2.69,7.26,1.48,2.85-1.98,5.61-7.2,9.63-5.8.39.23.76.53.91.88,1.13,2.95.04,6.54-1.95,8.71-.49,1.76,7.93,3.34,9.97,3.69,3.93.45,3.97-4.75,6.34-6.65,1.74-1.58,5.42-1.18,5.78,1.41.69,2.41-3.89,8.01.93,7.63,2.53,0,7.15.02,9.67-.07.74-.06,1.41-.14,1.94-.55,1.33-1.44.63-4.09,1.58-5.82.89-2.22,3.46-2.89,4.97-.86,2.81,4.72-.11,7.89,8.21,6.32,3.19-.87,10.29.18,6.95-5.13C231.59,31.32,175.92.19,121.84,10.69c-6.71.67-.13,6.98.24,10.59.04,2.03-4.5,2.27-6.14,2.99-4.18,1.64-9.79,1.71-10.26-3.94.34-4.88,3.73-8.46-4.31-6.02C46.15,32.33,4.52,85.3,11.25,144.58c.78,1.1,3.76-2.06,4.72-2.53,6.2-3.56,3.79-6.54,5.54-11.88.95-2.25,3.46-2.48,4.85-.47,1.38,1.62.91,4.31,2.14,5.93,1.19,1,2.93.13,4.31-.12,2.75-.86,5.26-.8,6.31-3.15.71-2.71.46-7.3,2.83-8.71,1.31-.82,3.13-.53,4.15.61l.1.11ZM48.82,149.79c-1.88,1.11-4.96.06-6.25-1.65-1.53-1.87-1.88-5.68-3.25-7.09-1.37-1.17-3.48-.14-5.17.28-1.43.49-3.02.66-4.05,1.66-.35.46-.34,1.04-.24,1.62.46,2.23,1.74,5.58,2.15,8.09.71,2.89-1.68,5-4.2,3.64-1.54-.77-2.51-2.8-3.79-5.1-1.36-2.58-2.37-4.66-5.39-2.29-4.69,2.88-7.7,5.2-6.03,11.28,13.96,64.01,79.69,100.05,142.19,92.21,7.94-1.24,21.89-5.01,28.19-6.42,1.03-.38.76-.88.46-2.36-1.02-3.88-2.19-8.43-3.23-12.38-1.18-6.16-4.11-4.15-8.01-2.4-2.4,1.05-5.05,1.56-6.4-1.1-.82-1.48-1.38-3.68-.53-4.84,1.7-2.56,10.63-2.15,9.71-5.69-.82-2.07-2.33-4.4-3.4-6.45-.94-1.73-1.71-3.31-3.47-2.31-2.06.69-6.02,4.49-7.97,2.93-1.05-1.15-1.19-3.18-.79-4.66.58-2.65,4.56-3.9,3.84-6.69-.6-1.95-2.22-3.8-3.27-5.51-.86-1.14-1.38-2.17-2.32-1.09-1.99,2.71-2.88,8.12-6.82,8-2.41-.67-4.71-5.12-3.55-7.49.76-1.71,2.81-4.51,3.58-6.13.48-.93.5-1.89-.11-2.79-1.27-1.91-3.65-4.86-5.05-6.65-.81-1.03-1.63-1.25-2.37,0-.96,1.52-1.81,3.77-3.67,4.37-2.33.89-5.55-.93-4.65-3.76.43-1.87,2.41-4.26,3.19-5.92.73-1.29.09-2.32-.91-3.16-1.81-1.62-5.24-4.65-7-6.15-.41-.34-.85-.67-1.31-.78-.31-.07-.59,0-.88.2-1.12.9-2.06,2.72-3.02,3.99-3.68,5.89-8.5,1.1-6.23-4.21.44-1.87,2.11-4.04,1.21-5.83-.38-.52-.99-.88-1.62-1.24-2.09-1.09-5.11-2.91-7.32-3.86-1.13-.49-1.95.01-2.19,1.22-.52,2.21-.88,5.05-2.36,6.82-1.92,2.47-5.76.15-5.89-2.56-.28-2.49,1.46-5.33,1.59-7.75,0-1.1-1.01-1.6-1.95-1.97-2.86-1.03-8.53-3.01-10.91-3.78-.57-.16-1.12-.28-1.55.06-1.31,1.7-.73,5.38-2.01,7.19-1.4,2.14-6.09,1.07-6.37-1.61-.36-2.11.22-4.98.09-7.13.02-1.34-.93-2.03-2.14-2.25-1.6-.35-4.34-.82-6.16-1.13-.76-.1-1.58-.25-2.23.14-1.25,1.17-.66,4.09-1.06,5.79-.14,2.89-3.39,4.8-5.98,3.06-5.02-3.93.05-10.96-9.72-9.31-1.42.17-3.49.2-3.68,1.98-.4,2.68,1.62,6.68.36,8.91l-.08.08Z"/>
</svg>