<?xml version="1.0" encoding="UTF-8"?>
<svg id="Layer_1" xmlns="http://www.w3.org/2000/svg" version="1.1" viewBox="0 0 238.03 334.76">
  <!-- Generator: Adobe Illustrator 30.5.1, SVG Export Plug-In . SVG Version: 2.1.4 Build 3)  -->
  <path d="M95.22,7.13c2.43.11,1.56,2.44,1.13,4.65-.04,1.05-1.8,4.11-2.53,2.54-.39-.71.34-4.32-1.18-2.36-1.42,2.6-2.52,5.15-3.35,8.14-.24.96-.33,2.71-1.67,1.8-10.3-6.1-23.62-14.24-32.84-20.72-.44-.69,1.66-.69,2.26-.82,13.87-1.76,25.84,3.26,38.02,6.74l.16.02Z"/>
  <path d="M194.39,249.61c-.07.5-.98,1.03-1.91,1.05-1.66.08-2.52-.82-4.26-.76-.6.02-1.31.16-2.04.32-17.44,2.53-32.66,11.68-43.05,25.9-12.53,15.01-23.01,31.25-38.37,43.08-34.88,29.55-95.42,16.01-103.84-32.05-2.66-13.95.58-30.49,7.95-44.1,8.82-17.4,19.46-33.41,30.49-49.57.58-.88,1.06-1.75,1.32-2.75.69-2.36-.49-5.04.02-7.51,1.56-8.12,9.01-4.81,12.09-11.08,3.4-6.68,9.14-12.83,11.35-16.26,1.52-2.18-.37-4.37-.73-6.75-.56-2.9.69-6.2,3.38-7.54,1.48-.83,3.38-.99,5.02-1.39,2.91-.54,3.11-3.39,4.02-5.97.41-1.13.88-2.21,1.47-3.23,2.56-4.29,5.51-9.02,8.18-13.42,1.03-1.92,3.3-4.55,2.99-6.3-1.43-5.33-2.02-9.62,3.97-12.28,1.91-1.01,3.6-.99,4.74-2.56,2.09-3.43,10.44-17.44,15.23-25.44,4.81-7.28,9.49-16.72,4.77-25.17-3.61-6.7-10.4-10.78-16.8-14.47-1.82-1.07-4.75-2.72-6.35-3.72-.84-.54-1.32-1.05-1.5-1.81-.32-1.29.25-3.35.07-4.36-.18-1.17-1.24.25-1.71-.53-.49-1.13-.25-2.69.37-3.74.82-1.25,2.45-1.47,3.41-2.59,2.7-4.21,6.18-11.34,12.48-9.68,4.06.63,9.28,4.99,13.61,7.25,23.44,7.2,39.42,38.81,25.46,58.66-3.6,5.19-4.22-1.99-3.37-4.7,6.17-19.13-7.4-39.5-24.01-49.78-3.58-2.29-10.75-5.88-12.96-.45-1.26,2.88-3.59,6.19-4.25,9.07.03,1.33,1.62,1.67,2.65,2.16,4.79,1.87,9.66,4.52,13.59,7.79,5.94,4.85,10.4,11.94,8.8,19.89-2.05,9.78-6.98,18.78-12.07,27.24-1.99,3.32-5.55,9.28-7.09,11.86-.95,1.54-1.72,3.18-1.65,5.03.44,4.85,3.74,8.1.29,13.44-1.25,1.91-3.02,2.97-5.1,3.49-2.3.69-4.38-.04-6.16,1.04-1.05.8-1.54,2-2.28,3.17-1.78,2.98-3.84,6.46-5.57,9.35-2.11,3.54-5.06,7.48-7.26,11.24-1.31,2.18,1.98,3.92,2.83,6.22,1.94,3.79-.44,8.73-4.15,10.38-2.17,1.21-4.87.07-7,1.3-2.14,1.47-2.93,3.79-4.39,5.66-2.31,3.39-5.03,7.32-7.36,10.77-2.15,2.84,1.88,4.54,2.7,7.6,1.16,2.93.6,6.41-1.55,8.78-2.45,2.84-6.64,3.91-10.47,4.38-1.37.19-2.74.28-3.8,1.21-2.15,2.31-3.97,5.98-5.84,8.68-7.31,11.47-14.47,22.95-20.97,34.93-3.94,7.06-7.28,14.54-8.94,22.41-4.66,19.35,2.92,41.21,19.1,52.95,18,12.78,43.14,12.09,61.76.8,32.09-18.35,39.69-58,75.76-70.15,8.37-2.52,16.99-2.29,24.95,1.38.76.45,1.83.7,2.01,1.53v.08Z"/>
  <path d="M83.07,215.84c-1.17.72-3.99-.21-4.46-1.5-.36-1,.65-2.65.93-4.1.62-2.14-1.04-3.73-2.31-5.3-1.16-1.48-2.03-3.19-2.22-5.07-.36-3.6,1.93-7.45,5.13-8.72,1.73-.77,3.86-.46,5.68-.37,1.2.08,2.01-.7,2.53-1.83,1.01-2.02,2.69-5.34,3.59-7.21.5-1.02.61-2.08.17-3.09-.73-1.66-1.71-3.65-1.48-5.55.54-8.71,12.38-11.42,18.55-6.29,6.35,4.52,2.71,15.21-4.6,16.13-1.95.39-4.28-.23-6.14-.35-1.89.19-1.92,2.51-2.77,4.24-.67,1.78-1.42,3.77-1.94,5.15-.99,2.1-.07,3.48.99,5.21,2.5,4.29,2.5,10.34-1.51,13.77-1.12.97-2.43,1.6-3.84,1.88-1.32.32-2.8.02-3.81.28-1.29.29-1.59,1.8-2.39,2.63l-.1.08Z"/>
  <path d="M218.55,111.78c-2.04,1.09-2.55-7.21-3.52-8.91-.97-2.19-3-5.89-3.99-7.78-.22-.38-.6-1.02-.83-.27-.6,2.06-2.28,9.18-3.14,12.57-1.19,4.59-2,9.72-5.09,13.51-3.63,4.75-11.85,6.35-15.58,1.32-4.89-6.87,2.2-15.47,10.1-13.92,3.89.67,3.78.43,4.87-3.41,1.04-3.43,2.18-7.18,3.23-10.64.69-2.26.79-2.45.88-4.87.1-1.53.03-3.3.31-4.77.5-2.53,3.33-1.84,5.35-.93,2.12,1.07,3.56,3.2,4.83,5.19,4.75,7.42,8.51,16.33,2.69,22.86l-.1.06Z"/>
  <path d="M221.37,244.69c-6.77,12.48-25.88,5.09-35.03-2.7-21.46-17.99-42.08-55.37-29.22-81.51,10.38-14.85,35.83,8.69,44.92,21.39,10.75,13.77,27,44.96,19.41,62.66l-.08.16ZM209.09,239.17c6.97-2.52,3.37-13.09,2.24-18.72-7.81-30.08-35.78-56.51-43.78-53.42-17.14,24.11,21.69,75.18,41.39,72.18l.15-.04Z"/>
  <path d="M82.63,220.71c4.42,7.36-1.05,17.49-10.1,16.32-.91-.09-2.03-.35-2.82-.37-1.76-.06-2.01,1.4-2.64,2.99-1.85,5.55-4.1,9.86-4.95,15.15-1.56,7.49,3.07,12.94,10.65,11.44,9.14-2.07,20.13-20.5,26.03-28.05,12.76-17.72,25.11-35.68,40.65-50.91,2.11-2.1,3.83-4.23,5.81-6.68.56-.62,1.6-2.1,2.24-1.4.42.78.44,2.02.47,2.98.22,6.57-1.66,10.2-5.67,14.93-14.55,16.19-27.02,33.15-39.13,51.33-5.35,7.9-11.46,15.29-18.47,21.74-5.28,4.58-13.03,7.23-19.86,4.97-3.7-1.52-7.73-4.06-9.64-8.1-3.74-9.9.08-21.49,6.62-29.25,1.03-1.48,2.99-2.61,2.62-4.46-2.16-4.69-1.73-11.74,4.09-15.27,4.25-2.84,11.13-2.27,14,2.47l.11.17Z"/>
  <path d="M125.7,118.94c-.73-.04-1.21.5-1.62,1.07-2.31,3.18-5.98,9.19-8.88,12.75-3.15,3.3-3.68,1.02-2.83-2.74,1.14-4.94,3.68-9.43,6.35-13.54,5.25-8.26,9.51-16.83,12.79-26,.62-1.7,1.6-4.21,2.15-5.83.25-.79.45-1.65-.08-2.33-.62-.85-2.41-1.57-3.13-2.82-1.15-1.88.29-4.1,2.39-4.97,6.39-2.41,16.41,3.68,17.31,10.46.32,3.4-1.87,7.28-4.77,8.69-2.04,1.1-4.5.38-6.66.28-1.1,0-1.83.65-2.49,2.05-.79,1.74-1.91,4.11-2.4,5.37-.96,2.14,1.76,3.67,3.06,5.27,1.77,1.82,2.92,2.98,3.06,4.83.32,3.44-2.05,7.19-5.32,8.15-2.73,1.14-6.13.09-8.82-.69h-.12Z"/>
  <path d="M105.1,159.52c-2.08,2.23-3.95.19-3.49-2.34.42-2.15,1.83-4.99,2.41-6.93.24-.71.26-1.43-.07-2.11-.84-1.97-3.28-4.18-3-6.56.22-2.27,1.87-4.73,4.15-5.44,6.39-2.25,14.21.63,17.01,7.2,2.86,6.35-3.56,13.43-10.14,11.49-1.42-.29-3.01-1.26-3.95-1.15-1.93.55-1.52,4.34-2.82,5.71l-.11.13Z"/>
  <path d="M223.74,40.39c-.26,6.34,1.61,13.66-2.21,19.21-2.2,2.74-7.25,2.61-10.34,1.03-3.37-1.8-4.57-6.82-2.8-10.08,1.24-2.38,4.84-3.05,7.11-3.58,1.11-.3,1.49-.75,1.56-1.87.27-3.8,1.03-14.88,1.28-18.49.19-2.12.21-5.14,2.05-6.5,2.29-1.21,5.38-.23,7.61.83,4.89,2.64,8.21,7.37,9.49,12.74.44,1.91.89,4.58.09,6.03-3.23,4.15-4.64-5.35-9.51-8.38-1.17-.84-3.77-2.56-3.94-.11-.19,2.35-.31,6.55-.39,9.02v.16Z"/>
  <path d="M191.25,80.8c-.73,7.77-8.59,9.39-14.26,5.28-1.68-1.28-2.37-3.47-2.46-5.53-.23-4.93,5.38-7.14,9.51-7.13,1.21-.04,1.87-.43,1.77-1.62-.06-3.52-.28-13.63-.35-17.16-.16-2.33.85-5.38,3.32-6.15,5.35-.96,13.87,5.33,10.21,11.46-1.92,2.31-4.88-3.02-6.66,1.87-.68,5.89-.59,14.28-1.05,18.83l-.02.14Z"/>
  <path d="M34.49,299.61c1.09,1.91,1.41,4.59.9,6.76-.76,2.63-7.04-3.78-7.98-4.6-9.37-8.64-12.65-25.72-10.21-27.47,1.36.64,2.56,3.2,3.03,4.84,2.26,7.3,6.14,13.12,12.08,18.14.76.65,1.54,1.36,2.08,2.18l.1.16Z"/>
</svg>