<?xml version="1.0" encoding="UTF-8"?>
<svg id="logo" xmlns="http://www.w3.org/2000/svg" version="1.1" viewBox="0 0 1870.99 1826.9">
  <!-- Generator: Adobe Illustrator 30.6.0, SVG Export Plug-In . SVG Version: 2.1.4 Build 109)  -->
  <g id="gold">
    <rect x="407.82" y="1428.82" width="427.76" height="17.9" fill="#dba135"/>
    <path d="M1426.21,1428.89c7.81,0,11.94,2.43,12.77,7.19.97,5.54-2.74,10.58-9.56,10.58h-385.41c-5.29,0-9.23-5.14-9.02-8.85.33-5.65,4.19-8.89,11.01-8.89l380.21-.02Z" fill="#dba135"/>
    <polygon points="935.92 1463.61 906.74 1481.66 914.9 1448.18 889.69 1426.61 923.57 1422.86 935.6 1391.23 947.78 1422.89 981.56 1426.63 956.51 1447.84 964.2 1481.53 935.92 1463.61" fill="#dba135"/>
    <path d="M1392.59,1597.52l-.28-36.43-7.31,20.95-5.34,1.93-8.22-23.19-.46,30.01c-.03,2.18-2.26,7.9-4.14,7.35l-7.79-2.29.89-61.47,13.33.15,8.5,28.52,8.46-28.55,12.58-.16,1.6,63.22-11.82-.05Z" fill="#dba135"/>
    <path d="M811.84,1594.61c-.07,2.26-7.33,4.65-9.12,3.27s-3.47-4.48-4.79-7.58l-11.01-25.83-.74,33c-3.31.24-9.47-.76-11.8-1.81l-.03-61.49,11.11.65,14.69,33.92.25-32.78c2.5-.78,8.04-1.36,11.67-1.33l-.24,59.99Z" fill="#dba135"/>
    <path d="M667.38,1580.5c0,8.39-7.38,16.75-15.53,16.89l-19.54.34-.29-38.07-.19-25.32,21.75.22c7.14.07,13.81,8.86,13.81,15.57v30.37ZM655.26,1579.85l-.45-30.57c-.04-2.86-8.23-5.04-10.61-4.25v42.4c4.55.5,11.13-2.88,11.06-7.59Z" fill="#dba135"/>
    <path d="M467.76,1578.73c.09,8.91-6.68,17.21-13.11,19.02-8.48,2.38-19.95-.12-22.83-9.66-3.78-12.51-3.53-27.41-1.32-40.15,1.82-10.46,11.55-15.59,20.23-14.61,9.49,1.07,16.65,8.39,16.76,18.87l.27,26.54ZM455.23,1581.06l-.02-30.47c0-2.37-4.15-6.86-6.49-6.9s-6.88,4.61-6.88,7.49l-.09,29.82c0,2.71,4.39,7.31,6.84,7.08s6.64-4.54,6.64-7.02Z" fill="#dba135"/>
    <path d="M523.85,1583.19c-1.78,11.08-11.23,15.8-19,15.56-10.06-.31-16.99-7.39-18.21-18s-1.76-22.9.71-33.57c2.25-9.7,11.1-14.4,19.32-13.93,19.48,1.11,21.11,25.46,17.17,49.94ZM512.46,1581.06l.21-30.12c.02-2.83-5.18-6.96-7.78-6.51-2.22.38-6.22,4.68-6.2,7l.31,30.01c.02,2.4,5,6.94,7.37,6.57,2.03-.32,6.07-4.69,6.09-6.94Z" fill="#dba135"/>
    <path d="M721.81,1597.31l-11.85-.05-9.85-26.35-1.19,26.58-11.66-.38-.13-62.96,18.47.14c9.66.07,14.86,7.42,15.37,16.38.46,8.18-1.14,14.63-7.56,20.53l8.41,26.12ZM706.12,1545.42l-7.2.2,1.16,18.17c3.36-.63,6.55-1.11,7.63-2.58,3.13-4.25,1.3-15.87-1.59-15.79Z" fill="#dba135"/>
    <path d="M1101.08,1598.67c-10.68.15-17.24-6.16-18.64-15.92-3.52-24.66-2.48-49.18,18.27-49.63,20.65-.45,22.06,25.48,18.44,50.54-1.32,9.18-8.87,14.89-18.08,15.02ZM1098.46,1587.39c2.7,2.18,9.67-2.81,9.65-6.33l-.18-30.16c-.02-2.66-4.95-7.38-7.28-7.22s-6.21,4.61-6.3,6.95l-.81,20.07c-.24,5.88-.76,12.1,4.92,16.69Z" fill="#dba135"/>
    <path d="M578.67,1546.75c4.89,24.92,3.17,51.96-18.73,51.21l-15.28-.52.13-61.74,13.02-1.93c8.63-1.28,18.99,3.47,20.86,12.98ZM566.81,1547.58l-10.21-2.69.17,43.06c15.49-.66,11.86-19.32,10.04-40.37Z" fill="#dba135"/>
    <path d="M1220.43,1535.51c18,4.86,15.23,60.69-.86,61.33l-23.05.91-.23-62.68c7.23-1.36,16.3-1.67,24.13.44ZM1219.62,1577.94l.68-24.34c.06-2.02-1.64-7.08-3.55-7.35l-8.09-1.16-.08,42.2c5.94.85,10.85-2.43,11.04-9.35Z" fill="#dba135"/>
    <path d="M1176.64,1579.7c.06,11.94-8.9,18.64-17.89,18.93-10.3.33-19.8-6.39-19.82-18.08l-.07-29.93c-.03-10.49,9.28-16.81,17.89-17.31,9.88-.58,19.69,6.16,19.75,17.58l.15,28.8ZM1164.55,1581l-.5-32.06c-.03-2.1-5.16-5.63-7.12-5.26s-5.94,4.18-5.94,6.53l-.04,31.74c0,2.63,4.92,6.7,7.29,6.19,2.03-.44,6.35-4.76,6.31-7.13Z" fill="#dba135"/>
    <path d="M1052.53,1574.72l-5.75-2.28c-1.57-.62-1.46-5.39-1.25-9.16l18.31-.19c.18,11.78-.95,20.52-3.94,31.83-6.1,2.47-13.5,3.98-20.53,2.9-4.79-.74-11.27-8.27-11.93-13-2.71-19.58-3.34-44.18,10.42-50.04,6.28-2.68,15.6-1.74,20.2,3.68,2.03,2.4,4.25,9.07,3.66,11.82-.46,2.16-8.03,3.94-9.08,2.02l-4.51-8.27c-3.46-1.29-9.4,3.42-9.38,7.42l.1,30.32c0,2.09,3.96,6.25,6,6.19s6.68-2.41,6.87-4.49l.81-8.75Z" fill="#dba135"/>
    <path d="M393.28,1572.27l-.29-9.53,18.27,2.12-1.55,23.87c-.21,3.25-6.98,7.49-10.2,8.46-9.69,2.92-19.82.87-23.27-9.58-5.96-18.05-4.94-46.27,7.84-52.21,6.41-2.98,15.58-2.89,20.52,2.56,2.76,3.04,4.36,8,5.74,13.35l-9.99,1.76c-2.3-4.09-5.22-9.01-7.95-9.13-2.52-.11-6.68,6.26-6.64,8.79l.47,29.41c.04,2.29,4.68,6.17,6.78,6.07,2.46-.11,6.27-4.45,6.42-6.88l.36-5.61c.08-1.21-1.92-1.76-6.53-3.45Z" fill="#dba135"/>
    <path d="M856.6,1564.15l12.03,30.74c-1.77,3.97-11.02,3.55-12.49-.1l-10.45-25.92-.87,26.13c-.73,2.51-8.13,3.47-11.81,1.99l.17-60.59c0-3.04,11.46-2.89,11.55.11l.63,22.14,2.95-2.9,7.74-21.16,12.34-.04-11.78,29.6Z" fill="#dba135"/>
    <path d="M911.24,1593.34c-6.26,8.06-18.19,6.23-25.19.4l1.19-11.81,6.87,4.58c1.72,1.15,6.41,1,8.07-.12,1.93-1.3,2.97-7.7,1.29-9.26l-10.39-9.71c-5.23-4.89-8.9-10.97-8.14-18.88.57-5.96,4.89-11.87,8.8-13.7,5.22-2.44,14.33-1.95,17.9,2.27,2.02,2.39.73,11.32-.95,12.61l-6.6-4.61c-1.3-.91-5.81.52-6.7,1.9-2.19,3.4,2.5,10.96,6.41,13.41,11.17,7,16.19,21.66,7.43,32.93Z" fill="#dba135"/>
    <path d="M1493.92,1592.95c-6.36,8.11-17.64,7.07-25.83.74l2.06-12.24c6,4.19,7.72,5.57,11.89,6.12,3.03.4,6-8.07,3.78-10.34l-13.43-13.74c-5.37-5.49-5.8-16.83-1.72-23.53,5.03-8.25,16.19-8.33,23.86-3.45,1.4,3.27.24,11.66-1.29,13.55-3.98-3.23-9.22-6.29-11.33-4.66-4.2,3.24-.73,12.3,4.12,14.92,12.1,6.53,16.47,21.68,7.89,32.62Z" fill="#dba135"/>
    <path d="M1448.51,1570.32l-11.92,1.02.05,16.05,10.92.12c1.04.01,3.39,3.14,3.74,4.16.52,1.54-2.3,5.96-4.02,5.96h-22.85s-.06-63.47-.06-63.47l23.35-.06c2.53,0,4.23,9.84,1.86,10.16l-12.85,1.34-.31,14.24,12.15.31-.07,10.18Z" fill="#dba135"/>
    <path d="M1300.43,1595.18c-.24,2.06-10.03,3.27-11.71,2.03l-.14-51.16-9.65-1.49.72-10.62,27.74.12c1.8,0,4,6.62,2.73,7.83-1.59,1.53-4.15,2.45-9.1,3.99l-.6,49.3Z" fill="#dba135"/>
    <rect x="1300.81" y="1559.86" width="63.74" height="12.22" transform="translate(-234.1661 2897.6334) rotate(-89.9624)" fill="#dba135"/>
    <path d="M752.93,1543.65l-.21,51.32c-.01,2.69-9.55,3.69-11.72,1.19l-.14-58.87c0-1.84,6.46-4.33,8.24-3.66,2.23.84,3.85,5.65,3.83,10.03Z" fill="#dba135"/>
    <path d="M983.6,1566.19c.51,7.22-5.04,13.29-10.93,13.85-6.35.61-12.62-4.16-13.74-11.43-1.06-6.8,4.14-13.14,9.84-14.39,7.04-1.55,14.17,2.72,14.83,11.97Z" fill="#dba135"/>
  </g>
  <path id="beer" d="M1147.13,315.68c-.28,44.11,1.11,87.67-10.63,130.1l-14.7,53.14-18.58,97.48c-15.96,83.74-25,166.67-33.58,252.2-61.19,26.77-134.54,31.65-200.01,20.41-23.81-4.08-45.76-10.64-68.3-20.85-7.65-71.43-15.41-141.03-26.73-212.16l-26.41-141.61-14.11-49.46c-9.68-42.89-10.69-85.43-10.34-129.15l25.29-3.51c-2.37,42.47.28,81.35,6.9,122.54l18.8-2.9,40.53,197.23,32.07,167.65,4.19,16.23c.73-84.7-3.21-168.86-14.35-253.88l-22.5-133.69c84.31-10.34,168.6-10.24,252.85,1.13l47.42,8.43c6.92-40.25,8.85-80.21,6.58-122.94l25.62,3.61ZM1035.07,819.33l9.85-45.13,15.71-100.39,25.54-152.5,8.18-34.15,4.49-15.25c-10.73,5.67-19.67,15.23-24.96,26.97-7.76,17.21-13.68,35.04-15.99,54.04l-10.85,89.39-6.78,76.38-5.58,87.64c-.3,4.74-.34,8.78.39,13Z" fill="#dba135" opacity="0"/>
  <g id="light">
    <path d="M1125.04,1779.02l-189.31,47.88-129.83-32.65-474.59-120.73-49.69-12.92c-28.81-7.49-44.13-36.99-44-65.61l.17-38.63-101.59-30.22-67.34-20.7c-11.3-3.47-22.39-10.77-31.6-18.31C14.92,1468.85.03,1442.78.03,1412.44L0,895.15c0-20.83,9.29-37.75,20.92-53.25,16.84-16.87,38.1-30.36,63.58-30.37l525.8-.21-58.97-444.26-18.09-136.31c.12-5.79,1.93-12.84,5.47-16.63l22.44-24.03c22.16-23.73,45.32-44.72,70.47-65.48C708.06,61.53,788.24,15.25,888.25,3.27c107.21-12.84,208.64,12.19,297.09,73.88,37.34,26.04,70.89,54.85,101.82,87.98l22.28,23.87,18.04,20.09c5.83,6.49,10.98,13.95,9.71,23.65l-36.19,275.5-36.17,271.42-3.22,31.73h519.81c21.67,0,39.78,6.32,56.44,19.61,18.89,15.07,33.13,38.28,33.13,64.18l.02,517.07c0,28.6-13.39,53.7-33.73,71.91-16.31,14.61-35.27,22.4-56.3,28.15l-146.11,43.69c-.22.22-2.01,4.42-2.02,5.59l-.31,38.43c-.26,32.73-23.56,56.31-53.92,63.96l-129.34,32.59-324.23,82.46ZM1120.81,1740.75l254.02-64.54,73.76-18.77,125.88-31.93c12.91-3.28,21.16-15.68,21.14-28.58l-.08-52.55c0-5.9,2.26-16.46,9.41-18.61l182.47-55.08c24.83-7.5,45.71-31.47,45.71-58.46l.04-513.28c0-25.15-19.05-48.46-45.76-48.48l-564.55-.25.22-37.81,43.9-328.4,32.41-249.81-13.67-15.57-39.25-40.72c-25.25-26.2-52.34-48.71-82.36-69.47-72.19-49.92-152.2-72.97-240.44-69.66-60.93,2.28-118.64,18.81-171.52,48.24-66.4,36.95-131.07,90.21-180.91,147.43l10.96,84.44,27.96,211.31,17.47,130.62,20.39,151.83-.13,37.65-563.89.13c-26.4,0-46.08,23.07-46.07,48.54l.09,515.44c0,24.94,21.93,49.32,44.11,56l176.64,53.22c8.56,2.58,16.19,7.43,16.18,17.69l-.09,53.21c-.03,18.02,10.27,28.37,26.93,32.55l151.69,38.01,277.37,70.57,204.86,51.71,185.12-46.58Z" fill="#f5e3ca"/>
    <path d="M1084.3,879.31c-66.55,32.17-151.08,36.95-223.32,24.08-29.54-5.26-56.76-14.55-82.92-29.09l-16.43-147.48c-9.21-82.65-24.09-162.58-42.32-243.5l-10.47-33.46c-6.22-31.61-10.2-63-10.19-95.23l.02-56.42c157.46-28.76,315.34-28.44,471.83-.39.89,3.39,1.53,7.23,1.58,11,.71,48.16-.67,95.12-10.14,142.26l-10.41,33.66-26.96,138.97c-13.59,82.96-23.43,164.71-31.46,248.32-2.16,2.3-6.34,6.08-8.83,7.29ZM1147.13,315.68l-25.62-3.61c2.27,42.73.33,82.69-6.58,122.94l-47.42-8.43c-84.25-11.37-168.53-11.47-252.85-1.13l22.5,133.69c11.14,85.02,15.09,169.18,14.35,253.88l-4.19-16.23-32.07-167.65-40.53-197.23-18.8,2.9c-6.62-41.19-9.27-80.07-6.9-122.54l-25.29,3.51c-.35,43.72.66,86.27,10.34,129.15l14.11,49.46,26.41,141.61c11.32,71.14,19.08,140.73,26.73,212.16,22.54,10.21,44.49,16.76,68.3,20.85,65.47,11.23,138.82,6.36,200.01-20.41,8.58-85.53,17.62-168.46,33.58-252.2l18.58-97.48,14.7-53.14c11.74-42.43,10.35-85.99,10.63-130.1Z" fill="#f5e3ca"/>
    <path d="M1506.11,1352.8c-4.83-5.21,12.26-23.08,12.26-42.2l.09-313.64-15.19-37.86,75.26-3.65,23.79,74.69,44.79,147.47.06-186.38c0-13.54-9.61-25.57-13.9-38.54l85.32-4.51c-3.97,15.11-13.29,27.41-13.29,42.74l.04,337.59c0,14.69,8.34,26.61,12.7,41.44l-73.67-6.31-9.65-34.28-58.04-196.93-1.86,20.42.15,161.85c.01,15.45,7.77,27.68,14.41,43.7l-83.28-5.6Z" fill="#f5e3ca"/>
    <path d="M1349.7,1304.01l-32.93-115.5-27.98-.32.59,116.58c.06,12.35,9.65,22.4,14.99,36.06l-93.38-3.33c5.55-13.02,15.48-23.29,15.48-36.91l.06-293.66c0-13.72-9.27-24.46-15.35-37.17l154.37-4.94c30.01-.96,50.87,23.42,50.81,51.87l-.27,120.04c-.05,23.83-11.95,43.96-34.99,52.2l32.56,107.55c5.74,18.97,13.62,34.18,27.24,51.68l-97.78-5.16c5.45-12.77,10.51-25.21,6.58-39ZM1354.6,1110.05l-.09-65.43c-.52-10.5-8.24-19.32-19.23-19.12l-46.39.86-.06,104.4,46.8-.2c10.63-.05,18.79-9.65,18.98-20.52Z" fill="#f5e3ca"/>
    <path d="M543.86,1304.87l-4.63-36.02-72.92,2.59-6.24,39.25c-1.93,12.14,6.79,22.49,12.97,35.65l-94.12,5.24c6.64-14.17,15.87-25.13,18.61-39.41l45.51-237.75,13.6-78c1.9-10.89-3.95-22.99-7.62-34.51l110.11,3.65c-4.14,11.48-9.75,22.62-7.89,32.97l7.78,43.29,48.98,258.41c1.81,9.53,7.14,18.81,11.56,26.51l7.09,12.36-95.8,4.3c6.37-13.26,14.74-25.09,13.01-38.53ZM529.79,1212.84l-27.15-159.38-27.46,160.79,54.6-1.41Z" fill="#f5e3ca"/>
    <path d="M880.6,1010.48l-41.89,201.24-17.43,86.85c-2.48,12.33.28,23.68,6.64,35.34l-103.89,2.27c6.22-13.37,9.64-24.27,7.18-36.77l-22.98-116.89-22.06-110.17-13.82-66.81c-2.63-12.72-11.24-22.52-18.21-36.63l94.59,1.86c-3.75,11.99-13.49,23.1-11.26,36.15l38.29,224.05c.02,4.73,1.7,4.65,2.44.36l39.21-224.43c1.24-7.1-4.12-17.64-6.4-22.88l-5.21-11.98,93.96.75c-6.86,12.26-16.1,23.04-19.15,37.69Z" fill="#f5e3ca"/>
    <path d="M1033.3,1176.74l-.23,100.22,66.9-.47c5.73-.04,15.82-5.87,20.56-8.38l17.03-9.83.05,76.93-181.41-2.25c4.48-12.19,14.83-23.5,14.82-36.71l-.06-286.71c0-9.65-7.9-20.64-11.15-28.42l-3.41-8.16,181.21-1.63-.07,77.22-13.36-6.89c-6.16-3.21-16.85-10.58-24.21-10.64l-66.68-.51-.11,89.81,46.45-.3c10.06-.07,18.79-7.95,29.98-13.75l.24,84.96c-10.21-4.89-19.93-13.59-30.26-13.76l-46.27-.75Z" fill="#f5e3ca"/>
    <path d="M1076.72,209.3l-7.13-20.31c52.29-5.73,99.92,30.39,102.44,85.52l-107.75-14.66c-122.01-12.14-242.87-7.15-365.6,15.06,2.77-60.64,59.74-104.03,119.42-94.63l19.82,3.12c52.48-49.45,130.48-59.45,190.02-18.95,14.07,9.57,25.68,20.69,36.46,33.66l9.74,11.72,2.61-.53ZM1077.5,212.48l-2.06-.4c1.45.29,2.08.41,2.06.4Z" fill="#f5e3ca"/>
    <path d="M293.79,1345l5.84,11.92-93.42,7.55,2.56-7.17c4.08-11.42,12.38-23.74,12.39-37.15l.19-304.45-33.29-1.06-35.56,20.73-.12-86.94,201.08,9.39.02,83.12-37.31-22.94-32.35-.44.1,203.02.04,94.36c0,9.73,5.51,21.3,9.81,30.06Z" fill="#f5e3ca"/>
    <path d="M1035.07,819.33c-.72-4.21-.69-8.26-.39-13l5.58-87.64,6.78-76.38,10.85-89.39c2.31-19,8.23-36.83,15.99-54.04,5.29-11.74,14.23-21.3,24.96-26.97l-4.49,15.25-8.18,34.15-25.54,152.5-15.71,100.39-9.85,45.13Z" fill="#f5e3ca"/>
  </g>
</svg>