<?xml version="1.0" encoding="UTF-8"?>
<svg id="Layer_1" xmlns="http://www.w3.org/2000/svg" version="1.1" viewBox="0 0 391.5 278.53">
  <!-- Generator: Adobe Illustrator 30.5.1, SVG Export Plug-In . SVG Version: 2.1.4 Build 3)  -->
  <path d="M389.8,167.01c-1.39-2.82-3.54-4.53-6.39-5.1l-.21-.05c-1.57-.37-3.23-.65-4.84-.93-4.16-.71-8.46-1.45-12.21-3.7-2.55-1.5-4.96-3.44-7.29-5.32-2.91-2.35-5.92-4.78-9.27-6.39-32.86-16.06-73.23-20.93-104.73-23.39h-.15c-10.52,0-13.12-4.94-15.88-10.18-1.93-3.66-3.93-7.44-8.87-10.3-6.19-3.64-13.57-5.48-21.29-5.48-6.2,0-12.63,1.19-18.86,3.58-7.5,2.84-10.26,6.93-12.94,10.89-2.1,3.11-4.27,6.32-8.62,8.53-2.78,1.29-6.42,1.73-9.28,1.96-37.55,3.47-77.07,8.18-111.03,23.9-3.46,1.65-6.54,4.09-9.53,6.45-3.11,2.46-6.33,5-10.02,6.71-2.02,1.02-4.2,1.7-6.31,2.35-3.44,1.07-6.69,2.08-9.03,4.49-3.91,4.88-4.1,16.23-.29,21.63,1.91,2.21,4.8,3.33,7.87,4.51,3.46,1.33,7.03,2.71,9.29,5.91,2.11,2.66,3,6.06,3.86,9.35l.24.93c3.31,12.89,6.98,26.65,11.44,39.99,1.6,4.69,3.64,10.14,6.66,14.96,6.49,11.48,21.2,16.42,32.09,16.21l25.02-.03c72.44-.09,163.69-.19,226.23-.27,6.54-.14,14.22-3.85,20.04-9.68,9.43-10.35,13.05-24.35,16.56-37.88,1.07-4.12,2.17-8.38,3.42-12.45.5-1.79,1.03-3.76,1.57-5.76.97-3.59,1.97-7.3,2.85-10.29.75-2.58,2.55-7.2,6.11-9.03,1.49-.81,3.21-1.39,4.88-1.95,3.48-1.17,6.76-2.28,8.41-5.37,2.39-4.9,3.25-13.3.51-18.81ZM36.4,158.72c10.11-7.07,22.96-11.31,33.02-14.23,7.25-1.99,15.13-3.78,24.82-5.62,1.53-.33,4.34-.76,6.83-1.04,4.69-.54,5.37-.36,5.6.61.28,1.21-1.02,1.59-4.24,2.41-1.49.33-2.95.65-4.41.96-7.29,1.58-14.84,3.22-22.09,5.43-3.26,1.04-6.95,2.33-9.31,4.6l-.07.07c-.43.43-.9,1.07-.71,1.65.24.68,1.31,1.28,2.6,1.44,2.98.58,7.96-.28,11.98-1.1,5.82-1.2,11.38-2.48,17.51-3.9,2.92-.68,6.23-1.46,9.46-2.23l4.52-1.07c.86-.25,2.29-.59,4.11-1.01,5.04-1.17,15.52-3.6,16.78-5.85.03-.06.05-.1.05-.13-.52-.56-1.42-.7-2.8-.89-.38-.05-.76-.1-1.16-.17-1.01-.12-2.37-.22-3.69-.31-1.31-.09-2.55-.18-3.48-.3-.77-.12-2.3-.36-2.23-1.59.12-2.21,9.14-3.03,9.23-3.04,4.4-.51,8.98-.99,13.6-1.48,6.78-.72,13.79-1.46,20.49-2.3,6.17-.58,7.34.88,9.83,5.16.2.35.42.72.65,1.11.78,1.24,1.96,1.92,3.51,1.99,2.4.1,5.29-1.33,6.88-3.42,2.3-3.22.73-6.8-.93-10.59-.8-1.82-1.62-3.7-1.96-5.53-.36-2.49.17-4.61,1.58-6.33,2.38-2.91,7.24-4.6,14.45-5.01,6.26-.55,16.51,1.28,18.53,6.97,1.13,3.8-.8,7.18-2.68,10.45-2.72,4.75-4.17,7.84.19,11.32,2.26,1.73,6.06,2.85,8.47,1.72,1.36-.64,2.09-1.96,2.17-3.9v-.12c.03-.13.05-.26.06-.4.09-.8.27-2.29,1.81-2.67l.1-.02c2.08-.28,4.02.12,6.28.57,1.08.22,2.21.45,3.49.64,2.14.37,4.62.52,6.81.66,32.89,1.88,62.77,7.57,88.8,16.9,6.26,2.08,12.61,5.01,16.95,7.82,1.7,1.14,2.69,2.05,2.43,3.06-.07.27-.34.91-1.39,1.01h-.05s-.05,0-.05,0c-10.08-.16-51.07-.07-98.51.04-37.99.09-79.99.18-116.71.18-48.66,0-88.04-.17-96.59-.74l-2.83-.19,2.33-1.63ZM358.41,194.56l-.03.22c-3.16,13.59-8.24,33.9-15.88,53.38-5.33,15.37-21.76,17.71-31.25,17.71h-43.09c-27.21-.08-61.37-.06-94.41-.03-47.1.04-91.6.07-102.78-.21h-.11c-5.09-.7-13.34-5.11-17.04-10.33-3.08-3.98-4.24-7.98-5.72-13.05-1.44-5.06-3.25-11.41-5.11-17.91-2.76-9.67-5.62-19.68-7.47-26.24-.16-.67-.31-1.25-.46-1.76-.46-1.68-.8-2.89-.07-3.78.66-.81,1.81-.73,2.2-.7,19.67.04,77.67,0,139.08-.02,68.57-.03,146.28-.06,180.25-.01,2.09.21,1.95,1.79,1.87,2.73ZM378.37,180.86l-.2.1h-.22c-8.36.13-46.22.17-94.86.17-45.28,0-99.9-.04-148.77-.07-58.53-.04-109.08-.07-118.76-.02-.42,0-.89-.03-1.34-.28-.73-.41-1.22-1.34-1.44-2.76-.25-1.57-.21-4.53.96-5.79.54-.56,1.18-.64,1.61-.65,51.93,0,114.75.01,175.77.02,42.53,0,84.19.02,120.68.02,34.55.01,59.71,0,65.62.02,1.92.12,2.23,1.75,2.45,2.94l.07.4c.2,1.81.1,5.09-1.57,5.91Z"/>
  <path d="M235.68,85.17l.17.1c3.89,2.25,4.7,1.61,4.74,1.58.39-.34.67-1.82-1.86-7.93-1.33-3.36-2.93-8.37-1.52-13.24.87-3.47,3.04-6.42,5.34-9.55,1.23-1.67,2.5-3.4,3.6-5.26,1.99-3.33,3.18-6.64,3.55-9.86.68-5.43-1.11-10.95-4.8-14.77-1.62-1.73-4.07-3.47-5.63-3.24-.34.05-.85.22-1.28,1.04-.51,1.97-.42,4.18-.32,6.51.14,3.25.28,6.62-1.22,9.71-1.22,3.13-3.51,6.18-5.72,9.13-1.97,2.62-4,5.33-5.29,8.12-4.23,8.04-2.81,20.09,10.24,27.67Z"/>
  <path d="M145.76,85.06c2.59,2.37,6.05,4.55,8.07,3.63,1.57-1.5.22-5.43-.97-8.89-.86-2.51-1.67-4.88-1.69-6.84-.48-4.19.57-8.58,3.3-13.8,5.22-8.98,9.84-18.56,4.54-28.63-1.44-2.85-4.66-6.24-7.17-6.77-.7-.15-1.28-.06-1.76.28-1.05,1.81-.81,4.12-.55,6.56.15,1.45.31,2.96.18,4.4-.18,5.96-3.14,11.1-6.01,16.07-2.88,5-5.6,9.73-5.79,15.31-.54,6.76,2.39,13.73,7.84,18.69Z"/>
  <path d="M190.48,77.34l.11.06c1.81.83,3.13,1.03,3.71.55,1.38-1.12.24-6.04-.45-8.99-.25-1.1-.49-2.13-.62-2.94-2.43-11.48,2.21-17.25,8.09-24.56,1.17-1.45,2.38-2.95,3.62-4.6,8.66-11.85,6.51-24.3-5.89-34.15-3.74-2.79-5.52-2.93-5.97-2.58-.45.36-.79,2.21,1.14,6.69,1.97,4.81,3.78,9.93,2.57,15.12-1.21,5.46-4.75,9.98-8.18,14.35-2.46,3.14-5,6.38-6.6,9.9-6.06,11.34-2.25,25.28,8.46,31.14Z"/>
  <path d="M341.32,205.03c-1.66-.74-4.13-.33-5.96,1.01-2.77,1.98-4.58,6.13-6.2,10.21-.71,1.74-1.41,3.56-2.11,5.39-1.77,4.62-3.61,9.39-5.78,13.18-1.51,2.65-3.5,5.13-5.91,7.39-.45.46-1.08,1.03-1.74,1.63-1.99,1.8-5,4.51-4.78,6.37.08.66.59,1.24,1.57,1.78h0c5.64,2.17,12.4-1.42,16.46-5.16,4.18-3.83,6.01-8.13,8.54-14.77.69-1.86,1.41-3.76,2.14-5.68,1.5-3.96,3.05-8.06,4.4-11.93,1.33-4.03,2.17-7.97-.63-9.41Z"/>
  <path d="M80.15,245.56c-1.36-.92-2.77-1.88-4.16-3.09-4.79-3.6-7.29-9.23-9.71-14.68-1.13-2.56-2.21-4.98-3.5-7.17-1.47-2.8-4.53-4.92-6.89-4.92-.23,0-.45.02-.67.06-1.88.36-2.46,2.34-2.62,3.94-.27,3.37.96,6.92,2.15,10.36l.32.93c1.93,5.23,4.16,10.72,8.24,15.19,3.97,4.34,9.58,7.19,15.02,7.63,2.11.26,5.14-.26,6.44-1.53.45-.44.63-.91.58-1.47-.69-2.17-2.79-3.59-5.2-5.23Z"/>
</svg>