<?xml version="1.0" encoding="UTF-8"?>
<svg id="Layer_1" xmlns="http://www.w3.org/2000/svg" version="1.1" viewBox="0 0 293.69 293.49">
  <!-- Generator: Adobe Illustrator 30.5.1, SVG Export Plug-In . SVG Version: 2.1.4 Build 3)  -->
  <path d="M146.73,0C71.25-.32,6.99,58.66.72,133.59c-8.98,87.87,66.98,166.37,155.69,159.47,54.18-3.07,103.84-38.25,125.07-88.06C323.42,109.3,252.04-.45,146.94,0h-.21ZM230.72,119.74c-5.14-3.26-9.92-9.92-10.93-15.63.02-4.41,4.43-6.16,8.66-9.83,1.14-.89,2.28-1.78,3.45-2.68,4.49-3.49,9.55-7.43,13.92-10.83,9.73-7.54,13.08-11.66,18.96.78,6.87,13.49,11.93,27.75,14.94,42.85.45,3.21,2.53,10.72-2.38,10.55-2.7-.15-7.29-3.12-11.68-5.2-4.86-2.34-9.97-4.27-15.16-5.58-6.33-1.96-14.15-1.28-19.62-4.34l-.16-.09ZM281.18,151.62c2.78,6.95,0,15.92-.94,23.91-1.19,7.19-2.68,12.61-5,19-1.86,4.58-5.62,15.83-9.22,16.01-.89-.1-1.62-1.21-2.22-3.08-1.08-3.52-1.6-7.83-2.42-11.57-2.84-14.53-7.98-28.58-14.22-42.13-1.81-4-3.8-8.04-5.7-11.97-1.41-3.16-4.22-8.8.37-9.89,8.37-1.38,35.6,11.34,39.28,19.56l.07.16ZM220.05,90.01c-8.31,7.28-18.33.07-18.38-9.72.17-5.84,5.52-11.97,7.21-18,1.77-5.35,2.19-11.01,1.79-16.62-.18-2.46-.53-4.97-.97-7.47-.36-3.25-2.33-9.26.89-10.25,2.48-.25,5.42,1.84,7.67,3.22,10.98,7.25,20.82,15.58,29.68,25.17,7.89,8.03,3.35,10.98-3.8,16.13-7.8,5.68-16.55,12.12-23.94,17.43l-.15.11ZM193.37,67.52c-3.55.19-7.06-3.42-9.64-5.94-16.88-17.22-35.28-32.58-55.93-44.66-3.99-3.01,1.66-3.1,4.04-3.33,4.71-.3,10.03-.52,14.51-.71,10.67-.56,20.7.46,31.19,3.39,7.35,1.86,14.1,4.91,17.85,11.38,5.22,9.69,7.01,22.07,4.1,32.66-.93,3.44-3.29,7.16-6,7.19h-.13ZM85.47,26.21c5.97-2.72,12.43-4.64,19.02-4.57,16.15.59,30.54,11.42,43.92,21.13,9.8,7.49,19.28,15.95,27.39,23.68,2.66,2.69,6.81,6.27,5.51,10.27-3.16,6.26-16.91,7.15-23.38,7.42-14.65.11-32.75-3.33-48.12-4.85-24.97-2.8-51.24,1.42-75.17,8.96-2.85.81-7.28,2.72-9.67,1.62-2.08-1.55.43-5.75,1.65-8.09,13.81-23.83,33.97-43.68,58.66-55.47l.19-.09ZM16.41,112.52c2.78-5.7,8.33-9.1,14.03-11.46,27.93-11.87,58.26-15.64,88.2-11.44,6.24.78,13.13,1.67,19.46,2.47,15.22,2.15,28.04,2.31,42.1-3.1,3.33-1.23,7.07-2.74,10.48-1.42,4.4,1.53,8.13,7.12,9.35,10.02.49,1.1.65,2.36-.32,3.23-17.18,13.15-77.54,57.99-107.21,80.26-16.27,11.33-33.66,22.59-51.43,31.98-8.74,4.53-13.41.21-16.8-8.12-12.18-28.46-18.1-62.77-7.95-92.24l.09-.17ZM39.99,224.15c1.51-1.42,3.88-2.64,5.9-3.68,21.07-10.86,41.15-23.31,60.67-36.65,33.74-23.31,66.87-47.15,100.37-70.88,2.95-2.03,5.13-1.54,7.12.7,2.92,3.12,5.09,8.25,4.25,12.51-.66,3.35-3.01,6.06-4.99,8.79-3.89,5.21-6.81,10.67-8.79,16.19-7.9,23.8-8,49.52-21.8,73.44-12.48,22.69-33.39,40.58-58.18,49.04-10.86,3.25-22-.61-32.08-4.55-15.52-6.01-30.06-14.8-42.32-26.06-3.05-2.8-6.3-5.84-9.05-8.81-2.85-3.02-4.66-6.94-1.23-9.94l.11-.1ZM205.6,195c2.01-8.8,3.85-18.5,5.75-27.43,1.32-7.2,8.43-35.32,18.47-25.86,13.18,17.78,30.26,69.68,20.85,90.18-18.01,28.1-62.51,45.64-95.53,48.07-2.51.24-6.92.42-8.39-.49-2.08-1.67,4.97-5.59,6.44-6.78,27-17.95,45.42-46.14,52.37-77.5l.04-.19Z"/>
  <path d="M204.88,24.92c-.02,1.71.09-1.61.07-1.81,0-.21-.01-.11-.03.33-.02.42-.03.87-.04,1.27v.21Z"/>
</svg>