<?xml version="1.0" encoding="UTF-8"?>
<svg id="Layer_1" xmlns="http://www.w3.org/2000/svg" version="1.1" viewBox="0 0 297.94 251.47">
  <!-- Generator: Adobe Illustrator 30.5.1, SVG Export Plug-In . SVG Version: 2.1.4 Build 3)  -->
  <path d="M294.97,40.78c-1.53-7.3-5.11-20.35-11.85-25.6l-.11-.08C267.05,4.03,241.51,0,217.22,0c-16.48,0-32.38,1.85-44.35,4.61C85.73,21-6.51,106.02.36,201.84c1.57,13.06,3.74,31.01,18.37,37.65,25.95,12.72,55.72,12.77,78.75,11.39,40.05-1.76,80.6-14.71,114.2-36.47,35.6-23.06,61.93-54.56,76.15-91.1,10.52-29.05,12.73-54.51,7.14-82.53ZM96.71,238.77c-.28.68-1.08.73-1.86.78-4.69.19-9.68.36-14.83.36-8.42,0-17.29-.44-26.12-1.95-3.1-.71-7.24-1.67-11.28-2.61-3.6-.84-7.12-1.65-9.69-2.25l-.72-.16c-1.37-.3-2.46-.54-3.9-1.43l-1.04-.57c-3.75-2.07-7.99-4.41-9.97-8.48-6.27-16.86-5.44-34.65-3.62-51.38l.02-.15c.26-1.91.89-5.48,1.44-8.64.3-1.71.57-3.27.74-4.31.23-1.02.82-1.4,1.28-1.55,1.23-.36,3.27.25,4.47,1.02.98.59,1.73,1.43,2.45,2.24.52.58,1.01,1.13,1.57,1.58,17.05,13.17,33.42,29.22,50.03,49.06,4.67,6.08,15.7,20.51,19.71,25.76l1.16,1.51c.37.57.26.99.16,1.19ZM273.31,126.19c-7.03,17.34-18.35,34.14-33.66,49.91-30.1,31.37-71.29,52.72-115.97,60.12-2.8.4-6.45.88-10.12,1.07-.04,0-.07,0-.1,0-1.5,0-2.72-.66-3.57-1.91-21.23-32.83-49.82-63.13-87.41-92.66l-.26-.2-.19-.75.11-.28c11.78-30.94,34.37-60.84,63.63-84.2,29.4-23.47,63.46-38.64,95.92-42.74l.28-.03.25.12c1.64.77,3.1,1.84,4.52,2.87.52.38,1.04.76,1.56,1.11,42.87,33.74,70.63,67.39,84.92,102.91.67,1.56.71,3.18.1,4.67ZM281.86,102.91c-.22.92-.46,1.4-.83,1.68l-.89.67-.54-.98c-18.29-33.28-45.08-63.9-79.63-90.99l-.53-.42.39-1.19.6-.16c20.62-3.34,43.13-.7,68.82,8.05,2.35.74,4.57,2.29,6.43,3.7l.17.13.1.19c10.87,21.23,12.8,47.17,5.89,79.3Z"/>
  <path d="M126.93,151.11c.2,0,.41.02.63.06,1.16.32,2.11,1.21,2.95,1.99.27.26.54.51.81.73,4.2,4.27,8.04,5.28,11.49,3.09,2.3-1.33,3.87-3.58,4.14-5.89.16-1.39-.06-3.44-2.05-5.31-.87-.9-1.93-1.73-3.47-2.74-.26-.18-.51-.33-.74-.48-.9-.56-1.75-1.09-1.88-2.05-.08-.6.14-1.18.69-1.78.56-.63,1.29-1.47,2.04-2.35,1.48-1.72,3.01-3.5,3.86-4.29l.11-.09c1.01-.69,1.85.2,2.52.91.18.2.4.42.65.67l4.68,4.9c.33.33.64.66.93.98.87.94,1.56,1.68,2.7,2.24,2.64,1.37,6.9.68,9.31-1.49,2.01-1.79,1.99-5.24,1.38-7.64-.25-.89-.68-1.46-1.29-2.08l-7.07-7.42c-.7-.74-1.57-1.66-.3-2.94,1-.98,3.99-3.79,5.24-4.93,1.97-1.68,3.59-.13,4.77,1,.16.15.32.3.48.45.38.39.71.75,1.03,1.1.95,1.03,1.84,2,2.96,2.69,2.29,1.54,5.29,1.8,8.08.71,2.83-1.1,4.91-3.4,5.57-6.14.73-3.93-2.88-6.81-6.06-9.34l-.84-.67c-.31-.25-.64-.5-.97-.74-1.15-.86-2.06-1.54-2.16-2.42-.13-.93.68-1.6,1.12-1.96l5.19-4.24c3.09-2.1,5.77-5.93,3.39-9.99-1.28-2.4-4.21-4.33-7.16-3.26-1.1.39-1.94,1.11-2.69,1.83l-6.16,5.74c-.58.61-1.27,1.18-2.06.97-.83-.22-1.04-1.05-1.25-1.86l-.08-.33c-.79-3.33-3-6.17-5.52-7.1-1.75-.65-3.48-.36-5.14.85-1.6,1.04-3.19.67-4.31-.96-2.48-3.62-6.21-3.85-8.65-2.95-2.42.89-5.08,3.47-4.63,7.81.17,1.59.87,3.07,2.15,4.53l.06.08c.19.27.5.56.83.87.76.72,1.72,1.62,1.68,2.89-.08.87-.82,1.61-1.94,2.64-.21.2-.42.38-.59.55-.37.32-.75.68-1.16,1.08-1.97,1.89-4.42,4.24-6.57,3.34l-.18-.1c-.35-.25-.72-.6-1.21-1.05-1.55-1.46-3.89-3.65-6.83-3.65-.02,0-.04,0-.05,0-2.87-.12-5.88,1.97-7.09,4.79-.55,1.29-1.15,3.76,1.05,5.92.46.49.99,1.01,1.51,1.52.84.83,1.71,1.68,2.25,2.37.83,1.27-.08,2.23-.51,2.69-.11.11-.22.23-.31.35l-.08.1c-.55.56-1.18,1.29-1.85,2.07-1.13,1.31-2.29,2.67-3.32,3.48l-.16.1c-1.24.63-2.13-.5-2.66-1.18-1.85-2.71-4.62-4.58-7.25-4.94-1.88-.25-3.58.26-5.06,1.52-2.42,1.84-5.64,7.09-5.01,9.86.75.83,2.18,1.98,3.56,3.1,1,.8,2.02,1.63,2.88,2.4.2.17.4.34.57.48.78.64,1.67,1.37,1.08,2.4l-.13.18c-1.02,1.08-2.32,2.11-3.58,3.11-1.53,1.21-3.1,2.46-4.22,3.82-2.18,2.62-2.39,5.61-.56,8,1.83,2.39,5.68,3.9,9.51,2.14,2.84-1.12,4.4-3.56,5.9-5.91,1.61-2.52,3.13-4.9,5.99-5.08l.38-.02.56.46.11.37c.19.96-.54,2.09-1.32,3.28-.3.47-.61.95-.77,1.29-.25.5-.52.93-.79,1.34-.74,1.15-1.14,1.85-.8,2.77.52,1.37,1.83,2.66,3.34,3.27.82.34,2.06.62,3.28.06l.13-.05c.53-.15,1.09-.58,1.68-1.02.94-.71,1.99-1.5,3.29-1.5ZM144.72,110.63c.26-.35,1.85-2.16,3.91-4.5.83-.94,1.52-1.73,1.73-1.98.62-.64,2.41-1.64,3.5-1.41.85.25,1.79,1.55,1.98,1.81l.11.21c.26.67-.2,1.18-.58,1.59-.14.15-.31.33-.48.56l-2.95,3.4c-.32.33-.66.76-1.01,1.21-.56.7-1.13,1.43-1.78,1.96l-.21.13c-.21.1-.46.14-.72.14-.84,0-1.81-.44-2.36-.77-.85-.51-1.3-1.09-1.33-1.72l-.02-.34.21-.28ZM127.05,126.38l.08-.31.25-.2c1.3-1.03,3.48-2.51,5.24-3.7.76-.52,1.45-.98,1.97-1.35l.84-.59.7,1.16-.03.35c-.06.44-.11,1.08-.16,1.76-.15,1.87-.27,3.05-.49,3.61l-.12.3-.27.16c-1.15.69-1.89,1.24-2.74,2.02-.7.71-1.82,1.11-3.11,1.11-.18,0-.37,0-.56-.02l-.15-.02c-.51-.13-.89-.47-1.13-1.03-.34-.88-.56-2.29-.31-3.25Z"/>
</svg>