<?xml version="1.0" encoding="UTF-8"?>
<svg id="logo" xmlns="http://www.w3.org/2000/svg" version="1.1" viewBox="0 0 1566.22 1342.34">
  <!-- Generator: Adobe Illustrator 30.6.0, SVG Export Plug-In . SVG Version: 2.1.4 Build 109)  -->
  <g id="gold">
    <polygon points="783.54 1324.29 754.35 1342.34 762.51 1308.86 737.31 1287.29 771.18 1283.54 783.22 1251.91 795.39 1283.57 829.17 1287.31 804.12 1308.52 811.81 1342.21 783.54 1324.29" fill="#dba135"/>
  </g>
  <path id="beer" d="M994.75,176.36c-.28,44.11,1.11,87.67-10.63,130.1l-14.7,53.14-18.58,97.48c-15.96,83.74-25,166.67-33.58,252.2-61.19,26.77-134.54,31.65-200.01,20.41-23.81-4.08-45.76-10.64-68.3-20.85-7.65-71.43-15.41-141.03-26.73-212.16l-26.41-141.61-14.11-49.46c-9.68-42.89-10.69-85.43-10.34-129.15l25.29-3.51c-2.37,42.47.28,81.35,6.9,122.54l18.8-2.9,40.53,197.23,32.07,167.65,4.19,16.23c.73-84.7-3.21-168.86-14.35-253.88l-22.5-133.69c84.31-10.34,168.6-10.24,252.85,1.13l47.42,8.43c6.92-40.25,8.85-80.21,6.58-122.94l25.62,3.61ZM882.68,680.01l9.85-45.13,15.71-100.39,25.54-152.5,8.18-34.15,4.49-15.25c-10.73,5.67-19.67,15.23-24.96,26.97-7.76,17.21-13.68,35.04-15.99,54.04l-10.85,89.39-6.78,76.38-5.58,87.64c-.3,4.74-.34,8.78.39,13Z" fill="#dba135" opacity="0"/>
  <g id="light">
    <path d="M931.92,739.99c-66.55,32.17-151.08,36.95-223.32,24.08-29.54-5.26-56.76-14.55-82.92-29.09l-16.43-147.48c-9.21-82.65-24.09-162.58-42.32-243.5l-10.47-33.46c-6.22-31.61-10.2-63-10.19-95.23l.02-56.42c157.46-28.76,315.34-28.44,471.83-.39.89,3.39,1.53,7.23,1.58,11,.71,48.16-.67,95.12-10.14,142.26l-10.41,33.66-26.96,138.97c-13.59,82.96-23.43,164.71-31.46,248.32-2.16,2.3-6.34,6.08-8.83,7.29ZM994.75,176.36l-25.62-3.61c2.27,42.73.33,82.69-6.58,122.94l-47.42-8.43c-84.25-11.37-168.53-11.47-252.85-1.13l22.5,133.69c11.14,85.02,15.09,169.18,14.35,253.88l-4.19-16.23-32.07-167.65-40.53-197.23-18.8,2.9c-6.62-41.19-9.27-80.07-6.9-122.54l-25.29,3.51c-.35,43.72.66,86.27,10.34,129.15l14.11,49.46,26.41,141.61c11.32,71.14,19.08,140.73,26.73,212.16,22.54,10.21,44.49,16.76,68.3,20.85,65.47,11.23,138.82,6.36,200.01-20.41,8.58-85.53,17.62-168.46,33.58-252.2l18.58-97.48,14.7-53.14c11.74-42.43,10.35-85.99,10.63-130.1Z" fill="#f5e3ca"/>
    <path d="M1353.73,1213.48c-4.83-5.21,12.26-23.08,12.26-42.2l.09-313.64-15.19-37.86,75.26-3.65,23.79,74.69,44.79,147.47.06-186.38c0-13.54-9.61-25.57-13.9-38.54l85.32-4.51c-3.97,15.11-13.29,27.41-13.29,42.74l.04,337.59c0,14.69,8.34,26.61,12.7,41.44l-73.67-6.31-9.65-34.28-58.04-196.93-1.86,20.42.15,161.85c.01,15.45,7.77,27.68,14.41,43.7l-83.28-5.6Z" fill="#f5e3ca"/>
    <path d="M1197.31,1164.69l-32.93-115.5-27.98-.32.59,116.58c.06,12.35,9.65,22.4,14.99,36.06l-93.38-3.33c5.55-13.02,15.48-23.29,15.48-36.91l.06-293.66c0-13.72-9.27-24.46-15.35-37.17l154.37-4.94c30.01-.96,50.87,23.42,50.81,51.87l-.27,120.04c-.05,23.83-11.95,43.96-34.99,52.2l32.56,107.55c5.74,18.97,13.62,34.18,27.24,51.68l-97.78-5.16c5.45-12.77,10.51-25.21,6.58-39ZM1202.21,970.73l-.09-65.43c-.52-10.5-8.24-19.32-19.23-19.12l-46.39.86-.06,104.4,46.8-.2c10.63-.05,18.79-9.65,18.98-20.52Z" fill="#f5e3ca"/>
    <path d="M391.47,1165.55l-4.63-36.02-72.92,2.59-6.24,39.25c-1.93,12.14,6.79,22.49,12.97,35.65l-94.12,5.24c6.64-14.17,15.87-25.13,18.61-39.41l45.51-237.75,13.6-78c1.9-10.89-3.95-22.99-7.62-34.51l110.11,3.65c-4.14,11.48-9.75,22.62-7.89,32.97l7.78,43.29,48.98,258.41c1.81,9.53,7.14,18.81,11.56,26.51l7.09,12.36-95.8,4.3c6.37-13.26,14.74-25.09,13.01-38.53ZM377.4,1073.52l-27.15-159.38-27.46,160.79,54.6-1.41Z" fill="#f5e3ca"/>
    <path d="M728.22,871.16l-41.89,201.24-17.43,86.85c-2.48,12.33.28,23.68,6.64,35.34l-103.89,2.27c6.22-13.37,9.64-24.27,7.18-36.77l-22.98-116.89-22.06-110.17-13.82-66.81c-2.63-12.72-11.24-22.52-18.21-36.63l94.59,1.86c-3.75,11.99-13.49,23.1-11.26,36.15l38.29,224.05c.02,4.73,1.7,4.65,2.44.36l39.21-224.43c1.24-7.1-4.12-17.64-6.4-22.88l-5.21-11.98,93.96.75c-6.86,12.26-16.1,23.04-19.15,37.69Z" fill="#f5e3ca"/>
    <path d="M880.91,1037.42l-.23,100.22,66.9-.47c5.73-.04,15.82-5.87,20.56-8.38l17.03-9.83.05,76.93-181.41-2.25c4.48-12.19,14.83-23.5,14.82-36.71l-.06-286.71c0-9.65-7.9-20.64-11.15-28.42l-3.41-8.16,181.21-1.63-.07,77.22-13.36-6.89c-6.16-3.21-16.85-10.58-24.21-10.64l-66.68-.51-.11,89.81,46.45-.3c10.06-.07,18.79-7.95,29.98-13.75l.24,84.96c-10.21-4.89-19.93-13.59-30.26-13.76l-46.27-.75Z" fill="#f5e3ca"/>
    <path d="M924.34,69.98l-7.13-20.31c52.29-5.73,99.92,30.39,102.44,85.52l-107.75-14.66c-122.01-12.14-242.87-7.15-365.6,15.06,2.77-60.64,59.74-104.03,119.42-94.63l19.82,3.12c52.48-49.45,130.48-59.45,190.02-18.95,14.07,9.57,25.68,20.69,36.46,33.66l9.74,11.72,2.61-.53ZM925.11,73.16l-2.06-.4c1.45.29,2.08.41,2.06.4Z" fill="#f5e3ca"/>
    <path d="M141.41,1205.68l5.84,11.92-93.42,7.55,2.56-7.17c4.08-11.42,12.38-23.74,12.39-37.15l.19-304.45-33.29-1.06L.12,896.05l-.12-86.94,201.08,9.39.02,83.12-37.31-22.94-32.35-.44.1,203.02.04,94.36c0,9.73,5.51,21.3,9.81,30.06Z" fill="#f5e3ca"/>
    <path d="M882.68,680.01c-.72-4.21-.69-8.26-.39-13l5.58-87.64,6.78-76.38,10.85-89.39c2.31-19,8.23-36.83,15.99-54.04,5.29-11.74,14.23-21.3,24.96-26.97l-4.49,15.25-8.18,34.15-25.54,152.5-15.71,100.39-9.85,45.13Z" fill="#f5e3ca"/>
  </g>
</svg>